# xmcd
#
# Track frame offsets:
#	150
#	27928
#	69159
#	108985
#	143252
#	184465
#	218052
#	249084
#	295526
#
# Disc length: 4371 seconds
#
# Revision: 0
# Processed by: cddbd v1.5.1PL0 Copyright (c) Steve Scherf et al.
# Submitted via: dBpowerAMP V4.0
#
DISCID=72111109
DTITLE=Dan Brown - DF01 - Digital Fortress
DYEAR=2004
DGENRE=Spoken
TTITLE0=0101 Digital Fortress
TTITLE1=0102 Digital Fortress
TTITLE2=0103 Digital Fortress
TTITLE3=0104 Digital Fortress
TTITLE4=0105 Digital Fortress
TTITLE5=0106 Digital Fortress
TTITLE6=0107 Digital Fortress
TTITLE7=0108 Digital Fortress
TTITLE8=0109 Digital Fortress
EXTD=
EXTT0=
EXTT1=
EXTT2=
EXTT3=
EXTT4=
EXTT5=
EXTT6=
EXTT7=
EXTT8=
PLAYORDER=
